<?xml version="1.0" encoding="iso-8859-1"?>
<!-- Generator: Adobe Illustrator 16.0.0, SVG Export Plug-In . SVG Version: 6.00 Build 0)  -->
<!DOCTYPE svg PUBLIC "-//W3C//DTD SVG 1.1//EN" "http://www.w3.org/Graphics/SVG/1.1/DTD/svg11.dtd">
<svg version="1.1" xmlns="http://www.w3.org/2000/svg" xmlns:xlink="http://www.w3.org/1999/xlink" x="0px" y="0px" width="512px"
	 height="512px" viewBox="0 0 512 512" style="enable-background:new 0 0 512 512;" xml:space="preserve">
<g id="_x32_55_x2C__About_x2C__Info_x2C__Information_x2C__News">
	<g>
		<path style="fill:#3D4966;" d="M141,186c-22.13,0-42.74,6.54-60,17.8c-30.1,19.62-50,53.59-50,92.2s19.9,72.58,50,92.2
			c17.26,11.26,37.87,17.8,60,17.8c60.75,0,110-49.25,110-110S201.75,186,141,186z"/>
		<path style="fill:#30C9B0;" d="M466,336c8.29,0,15,6.72,15,15s-6.71,15-15,15c-8.28,0-15-6.72-15-15S457.72,336,466,336z"/>
		<path style="fill:#30C9B0;" d="M51,26c11.05,0,20,8.95,20,20s-8.95,20-20,20c-11.04,0-20-8.95-20-20S39.96,26,51,26z"/>
		<path style="fill:#FBC640;" d="M161,296v60c0,5.52-2.24,10.52-5.86,14.14c-3.61,3.62-8.61,5.86-14.14,5.86c-11.04,0-20-8.95-20-20
			v-60c0-11.05,8.96-20,20-20C152.05,276,161,284.95,161,296z"/>
		<path style="fill:#FBC640;" d="M155.14,221.86c3.62,3.62,5.86,8.62,5.86,14.14s-2.24,10.52-5.86,14.14
			c-3.61,3.62-8.61,5.86-14.14,5.86c-5.52,0-10.52-2.24-14.14-5.86c-3.62-3.62-5.86-8.62-5.86-14.14c0-11.05,8.96-20,20-20
			C146.53,216,151.53,218.24,155.14,221.86z"/>
		<path style="fill:#ECF0F1;" d="M381,86v360H141H81v-57.8c17.26,11.26,37.87,17.8,60,17.8c60.75,0,110-49.25,110-110
			s-49.25-110-110-110c-22.13,0-42.74,6.54-60,17.8V96h60V36h240V86z"/>
		<path style="fill:#FF4F4F;" d="M461,126c5.52,0,10,4.48,10,10s-4.48,10-10,10s-10-4.48-10-10S455.48,126,461,126z"/>
		<path style="fill:#FF4F4F;" d="M451,226c5.52,0,10,4.48,10,10s-4.48,10-10,10s-10-4.48-10-10S445.48,226,451,226z"/>
		<path style="fill:#FF4F4F;" d="M451,416c5.52,0,10,4.48,10,10s-4.48,10-10,10s-10-4.48-10-10S445.48,416,451,416z"/>
		<path style="fill:#FF4F4F;" d="M431,36c5.52,0,10,4.48,10,10s-4.48,10-10,10s-10-4.48-10-10S425.48,36,431,36z"/>
		<path style="fill:#FF4F4F;" d="M41,146c5.52,0,10,4.48,10,10s-4.48,10-10,10s-10-4.48-10-10S35.48,146,41,146z"/>
		<path style="fill:#FF4F4F;" d="M41,406c5.52,0,10,4.48,10,10s-4.48,10-10,10s-10-4.48-10-10S35.48,406,41,406z"/>
		<g>
			<path style="fill:#2C3649;" d="M98.57,239.428c-3.905-3.904-10.237-3.903-14.142,0.002c-31.182,31.193-31.182,81.947,0,113.139
				c1.953,1.954,4.512,2.931,7.072,2.931c2.559,0,5.117-0.976,7.07-2.928c3.906-3.904,3.907-10.236,0.002-14.142
				c-23.388-23.396-23.388-61.465,0-84.861C102.477,249.664,102.476,243.332,98.57,239.428z"/>
			<path style="fill:#2C3649;" d="M197.571,239.429c-3.905-3.905-10.237-3.905-14.143,0c-3.905,3.905-3.905,10.237,0,14.143
				c23.396,23.396,23.396,61.462,0,84.857c-3.905,3.905-3.905,10.237,0,14.143c1.953,1.952,4.512,2.929,7.071,2.929
				s5.119-0.977,7.071-2.929C228.765,321.378,228.765,270.622,197.571,239.429z"/>
		</g>
		<g>
			<path style="fill:#BFC1C1;" d="M141,36c-18.55,18.55-41.45,41.45-60,60h60V36z"/>
			<polygon style="fill:#BFC1C1;" points="381,86 381,446 141,446 141,486 421,486 421,86 			"/>
			<path style="fill:#BFC1C1;" d="M171,126h170c5.523,0,10-4.477,10-10s-4.477-10-10-10H171c-5.523,0-10,4.477-10,10
				S165.477,126,171,126z"/>
			<path style="fill:#BFC1C1;" d="M171,156h170c5.523,0,10-4.477,10-10s-4.477-10-10-10H171c-5.523,0-10,4.477-10,10
				S165.477,156,171,156z"/>
			<path style="fill:#BFC1C1;" d="M341,166H231c-5.523,0-10,4.477-10,10s4.477,10,10,10h110c5.523,0,10-4.477,10-10
				S346.523,166,341,166z"/>
			<path style="fill:#BFC1C1;" d="M341,196h-80c-5.523,0-10,4.477-10,10s4.477,10,10,10h80c5.523,0,10-4.477,10-10
				S346.523,196,341,196z"/>
			<path style="fill:#BFC1C1;" d="M341,226h-60c-5.523,0-10,4.477-10,10s4.477,10,10,10h60c5.523,0,10-4.477,10-10
				S346.523,226,341,226z"/>
			<path style="fill:#BFC1C1;" d="M341,256h-50c-5.523,0-10,4.478-10,10s4.477,10,10,10h50c5.523,0,10-4.478,10-10
				S346.523,256,341,256z"/>
			<path style="fill:#BFC1C1;" d="M341,286h-50c-5.523,0-10,4.478-10,10s4.477,10,10,10h50c5.523,0,10-4.478,10-10
				S346.523,286,341,286z"/>
			<path style="fill:#BFC1C1;" d="M341,316h-60c-5.523,0-10,4.478-10,10s4.477,10,10,10h60c5.523,0,10-4.478,10-10
				S346.523,316,341,316z"/>
			<path style="fill:#BFC1C1;" d="M341,346h-70c-5.523,0-10,4.478-10,10s4.477,10,10,10h70c5.523,0,10-4.478,10-10
				S346.523,346,341,346z"/>
			<path style="fill:#BFC1C1;" d="M341,376h-90c-5.523,0-10,4.478-10,10s4.477,10,10,10h90c5.523,0,10-4.478,10-10
				S346.523,376,341,376z"/>
		</g>
	</g>
</g>
<g id="Layer_1">
</g>
</svg>
